<svg width="77" height="82" viewBox="0 0 77 82" fill="none" xmlns="http://www.w3.org/2000/svg">
<path d="M37.4299 81.2698C35.9898 80.9138 34.5281 80.538 33.4409 79.4807C32.6128 78.6752 31.9666 77.6862 31.2213 76.7926C31.0107 76.5409 30.7749 76.2388 30.4868 76.1345C28.2925 75.3398 27.0342 73.6046 27.0234 71.2564C27.0144 69.0915 27.0036 66.9248 27.027 64.76C27.0522 62.4441 26.1323 60.6262 24.2566 59.2759C20.3053 56.4331 17.4431 52.7471 15.6232 48.234C12.0139 39.2904 14.3163 28.5326 21.2882 21.8887C21.902 21.3044 22.5447 21.2468 23.0433 21.7359C23.5402 22.2232 23.4915 22.928 22.8687 23.5466C19.6915 26.7022 17.4917 30.4331 16.7033 34.8366C15.0975 43.7963 17.8715 51.2331 24.9947 56.9204C27.1098 58.6088 28.8037 60.4266 29.2376 63.2586C29.5436 63.2586 29.8172 63.2586 30.0908 63.2586C32.9224 63.2586 35.754 63.2586 38.5838 63.2586C38.762 63.2586 38.942 63.2514 39.1203 63.2604C39.9051 63.3017 40.3713 63.7333 40.3696 64.4147C40.3678 65.1052 39.9105 65.5349 39.1113 65.5385C36.5353 65.5493 33.9593 65.5421 31.3833 65.5439C30.7263 65.5439 30.0674 65.5439 29.3528 65.5439C29.3528 67.6944 29.2772 69.7784 29.3816 71.8533C29.4446 73.1066 30.6039 74.0506 31.9215 74.0595C36.3085 74.0883 40.6954 74.0901 45.0823 74.0595C46.5224 74.0488 47.6385 72.9537 47.6691 71.553C47.7141 69.5932 47.6799 67.6315 47.6799 65.5457C46.9544 65.5457 46.2506 65.5457 45.5485 65.5457C45.0643 65.5457 44.58 65.5493 44.094 65.5439C43.2029 65.5331 42.6755 65.0998 42.6881 64.395C42.7007 63.7009 43.239 63.2694 44.1318 63.264C45.3253 63.2568 46.5188 63.2622 47.7663 63.2622C48.2019 60.3565 49.9228 58.4218 52.1838 56.8035C53.2315 56.0537 54.1945 55.1367 55.0334 54.1586C60.7128 47.5381 62.3689 39.9827 59.4095 31.7925C56.4645 23.6401 50.4233 18.8087 41.8367 17.3648C36.4705 16.4622 31.4535 17.6148 26.8146 20.4359C26.7282 20.4881 26.6436 20.5474 26.5536 20.5959C25.8749 20.9681 25.2287 20.8459 24.8812 20.2831C24.5266 19.7059 24.6868 19.082 25.3565 18.6522C27.4266 17.3199 29.6498 16.3237 32.0278 15.6782C45.8563 11.9203 59.9963 20.5726 62.5885 34.6478C64.3653 44.3034 61.1844 52.3479 53.6077 58.6268C53.1757 58.9846 52.7058 59.2957 52.2756 59.6535C50.8031 60.8815 50.011 62.4548 49.9894 64.3734C49.9642 66.6156 49.984 68.8577 49.9804 71.0999C49.975 73.6208 48.7923 75.293 46.4432 76.1525C46.229 76.2298 45.9787 76.3934 45.8833 76.5858C44.6124 79.1373 42.5891 80.671 39.7755 81.1655C39.7053 81.1781 39.6423 81.2338 39.5757 81.2698C38.8592 81.2698 38.1446 81.2698 37.4299 81.2698ZM43.3452 76.4078C40.0437 76.4078 36.9223 76.4078 33.6587 76.4078C34.917 78.1034 36.4849 78.9557 38.4632 78.9665C40.4722 78.9772 42.0671 78.1304 43.3452 76.4078Z" fill="black" stroke="black" stroke-width="0.5"/>
<path d="M5.50459 37.5512C4.43531 37.5512 3.36604 37.562 2.29676 37.5476C1.5119 37.5386 1.02047 37.1071 1.00067 36.4508C0.979066 35.7639 1.4831 35.2731 2.30216 35.2659C4.44071 35.2497 6.57926 35.2479 8.71782 35.2659C9.53327 35.2731 10.0391 35.7693 10.0157 36.4562C9.99231 37.1107 9.49907 37.5386 8.71242 37.5476C7.64314 37.562 6.57386 37.553 5.50459 37.5512Z" fill="black" stroke="black" stroke-width="0.5"/>
<path d="M71.4974 37.5512C70.4281 37.5512 69.3589 37.5602 68.2896 37.5476C67.5029 37.5386 67.0097 37.1124 66.9845 36.4597C66.9575 35.7711 67.4597 35.273 68.277 35.2676C70.4155 35.2497 72.5541 35.2497 74.6926 35.2676C75.5081 35.2748 76.0175 35.7675 75.9995 36.449C75.9815 37.0999 75.4811 37.5404 74.7052 37.5494C73.636 37.562 72.5667 37.5512 71.4974 37.5512Z" fill="black" stroke="black" stroke-width="0.5"/>
<path d="M39.6441 5.47734C39.6441 6.51842 39.6549 7.5595 39.6405 8.60058C39.6279 9.48343 39.176 10.0121 38.4812 9.99947C37.7827 9.98868 37.3579 9.47084 37.3543 8.56641C37.3435 6.50943 37.3435 4.45245 37.3543 2.39546C37.3597 1.50722 37.8097 0.989377 38.5136 1.00017C39.2156 1.01095 39.6297 1.5216 39.6405 2.42783C39.6549 3.44553 39.6459 4.46144 39.6441 5.47734Z" fill="black" stroke="black" stroke-width="0.5"/>
<path d="M57.9352 18.2023C57.6148 17.9236 57.2332 17.7042 57.0171 17.377C56.7093 16.9113 56.9127 16.4456 57.2836 16.0716C58.396 14.9532 59.5139 13.842 60.63 12.729C61.08 12.2795 61.5175 11.8174 61.9873 11.3894C62.4769 10.9417 63.1322 10.9435 63.5714 11.3517C64.0376 11.7868 64.0862 12.4826 63.5948 12.9861C62.0305 14.5846 60.441 16.1615 58.8425 17.7276C58.6373 17.9254 58.3168 18.0063 57.9352 18.2023Z" fill="black" stroke="black" stroke-width="0.5"/>
<path d="M14.1506 10.8949C14.5665 11.1502 14.9031 11.2833 15.1425 11.517C16.651 12.9914 18.1433 14.4838 19.6284 15.9816C20.2315 16.5894 20.2693 17.2241 19.7742 17.7257C19.2846 18.2202 18.6168 18.1914 18.0209 17.6035C16.5016 16.1039 14.9967 14.5881 13.4828 13.0813C13.0796 12.6804 12.9014 12.1877 13.1966 11.7076C13.3964 11.3822 13.8014 11.1826 14.1506 10.8949Z" fill="black" stroke="black" stroke-width="0.5"/>
<path d="M50.8139 8.27513C50.3062 9.46005 49.9282 10.5119 49.4062 11.4865C49.1452 11.9773 48.4863 12.069 48.0615 11.7238C47.7465 11.4685 47.4224 10.8841 47.5052 10.5461C47.7393 9.59491 48.1461 8.67789 48.5565 7.78246C48.7995 7.25203 49.3648 7.07942 49.858 7.31676C50.2342 7.49657 50.4863 7.9317 50.8139 8.27513Z" fill="black" stroke="black" stroke-width="0.5"/>
<path d="M29.7236 10.8644C29.3996 11.1952 29.1296 11.6987 28.7641 11.7832C28.3879 11.8695 27.6895 11.6699 27.5328 11.3804C27.0414 10.476 26.6598 9.48884 26.4132 8.49092C26.334 8.17266 26.7228 7.52536 27.0504 7.38151C27.3834 7.23587 28.1521 7.3905 28.3051 7.65482C28.8505 8.61319 29.2178 9.67404 29.7236 10.8644Z" fill="black" stroke="black" stroke-width="0.5"/>
<path d="M64.0925 25.1102C64.2419 24.9412 64.4652 24.5132 64.8162 24.328C65.5308 23.9522 66.3067 23.6825 67.0735 23.4182C67.7954 23.1683 68.4002 23.4614 68.6217 24.1069C68.8305 24.7146 68.5641 25.2522 67.8602 25.5525C67.16 25.851 66.4543 26.1405 65.7343 26.3904C64.8594 26.6907 64.1069 26.2088 64.0925 25.1102Z" fill="black" stroke="black" stroke-width="0.5"/>
<path d="M11.8978 26.6708C10.7169 26.1638 9.6674 25.7808 8.69173 25.2611C8.24169 25.022 8.18049 24.461 8.42891 23.9647C8.67373 23.4757 9.11116 23.2041 9.62059 23.3624C10.5621 23.6573 11.4873 24.0187 12.3856 24.4268C12.886 24.6534 13.0516 25.2 12.8356 25.6675C12.661 26.0469 12.2452 26.3148 11.8978 26.6708Z" fill="black" stroke="black" stroke-width="0.5"/>
<path d="M51.0909 31.6961C50.9784 31.9574 50.915 32.1743 50.7992 32.3596C50.6343 32.6256 50.4314 32.8679 50.2427 33.1197C49.1139 34.621 49.1076 34.6241 49.9225 36.2679C49.9922 36.4088 50.2015 36.5371 50.3648 36.5672C51.1147 36.7066 51.8694 36.8158 52.624 36.9219C53.2962 37.0154 53.607 37.4192 53.6117 38.0669C53.6213 39.3448 53.626 40.6244 53.6102 41.9023C53.6006 42.626 53.3153 42.9428 52.5749 43.0742C51.8456 43.2025 51.1068 43.2753 50.3823 43.4226C50.1936 43.4606 50.0002 43.657 49.8797 43.8296C49.0664 44.9983 49.2725 46.0355 50.303 46.9698C50.4996 47.1472 50.6375 47.3911 50.7913 47.6112C51.1353 48.1037 51.11 48.5819 50.6867 49.0111C49.756 49.9533 48.8159 50.8861 47.8757 51.8188C47.4001 52.2907 46.8944 52.297 46.368 51.898C45.867 51.5179 45.3422 51.1679 44.8666 50.7594C44.4814 50.43 44.1231 50.2875 43.6823 50.62C43.6474 50.6469 43.603 50.6707 43.5618 50.677C42.3173 50.8417 42.1191 51.7127 42.0271 52.769C41.8575 54.7073 41.7687 54.7437 39.8076 54.7437C38.842 54.7437 37.8765 54.75 36.9094 54.7421C36.1389 54.7358 35.8234 54.446 35.7093 53.6764C35.676 53.4546 35.6015 53.2314 35.6094 53.0128C35.6665 51.6969 35.1686 50.8275 33.7941 50.5313C33.4643 50.4601 33.2344 50.3856 32.9475 50.6168C32.3894 51.0682 31.8028 51.4831 31.2273 51.9138C30.693 52.3129 30.1936 52.2717 29.7228 51.7998C28.8191 50.894 27.9043 49.9992 27.0069 49.0887C26.4806 48.555 26.4489 48.1401 26.8833 47.5383C27.3034 46.9556 27.7695 46.4061 28.1595 45.8043C28.2832 45.6127 28.2245 45.3023 28.2467 45.0458C28.2483 45.0268 28.2198 45.0078 28.2166 44.9872C28.001 43.5097 26.9626 43.1787 25.6863 43.1597C25.4421 43.1565 25.198 43.0979 24.9538 43.0615C24.3149 42.9665 24.0153 42.5674 24.0089 41.9498C23.9978 40.6481 23.9962 39.348 24.0089 38.0463C24.0153 37.4303 24.3086 37.0265 24.9522 36.9346C25.6403 36.8364 26.3268 36.7208 27.018 36.6448C27.4413 36.5989 27.7457 36.4674 27.7981 35.9987C27.806 35.9354 27.8377 35.8673 27.8773 35.815C28.6193 34.8316 28.1786 34.081 27.5048 33.2527C26.2222 31.6755 26.2618 31.6438 27.7172 30.1917C28.3847 29.5266 29.0553 28.863 29.7212 28.1948C30.192 27.7228 30.6883 27.6753 31.2241 28.0776C31.8171 28.521 32.3958 28.9881 33.0125 29.3935C33.1885 29.5091 33.4913 29.5028 33.718 29.46C35.0735 29.2019 35.7013 28.3753 35.6094 26.9896C35.5919 26.7268 35.6728 26.4575 35.722 26.1931C35.8329 25.5802 36.1865 25.2445 36.8302 25.2461C38.1556 25.2493 39.481 25.2461 40.8064 25.2477C41.4532 25.2477 41.7925 25.6024 41.8987 26.2121C41.9447 26.4766 42.0303 26.7473 42.0097 27.0086C41.8971 28.418 42.5884 29.1956 43.9185 29.4648C44.1437 29.5107 44.4449 29.5028 44.624 29.3856C45.2408 28.9786 45.8194 28.5115 46.4124 28.0681C46.9229 27.6864 47.4144 27.7181 47.8646 28.1615C48.8064 29.0926 49.7497 30.0222 50.6708 30.974C50.861 31.1672 50.9562 31.4554 51.0909 31.6961ZM51.5951 38.8175C50.7976 38.6971 50.0493 38.5578 49.2963 38.4786C48.6716 38.4137 48.3593 38.0843 48.1595 37.511C47.8805 36.7113 47.5618 35.9195 47.1845 35.1626C46.8959 34.583 46.9261 34.1142 47.3303 33.617C47.7933 33.0453 48.2166 32.4419 48.5828 31.9526C48.0057 31.3445 47.4746 30.7839 46.9261 30.2043C46.3617 30.624 45.7703 31.0325 45.2154 31.4855C44.6938 31.9114 44.2102 31.9241 43.611 31.6153C42.8785 31.2384 42.108 30.9106 41.32 30.6683C40.6875 30.4735 40.3878 30.1109 40.3101 29.4885C40.2198 28.7601 40.1072 28.0348 40.0026 27.2969C39.1766 27.2969 38.4013 27.2969 37.6118 27.2969C37.5055 28.0665 37.3993 28.7981 37.3026 29.5313C37.2249 30.1283 36.9158 30.4704 36.3228 30.6652C35.519 30.9296 34.7279 31.2574 33.9701 31.6359C33.3914 31.9257 32.9221 31.9019 32.4227 31.4981C31.8504 31.0373 31.2463 30.6145 30.7279 30.2281C30.1159 30.7982 29.5499 31.3239 28.9697 31.8639C29.4009 32.4388 29.7941 33.012 30.2396 33.5425C30.7073 34.1 30.7422 34.6241 30.3775 35.2623C30.0462 35.8419 29.7101 36.4611 29.5832 37.104C29.3787 38.1397 28.7778 38.4723 27.8107 38.5752C25.9701 38.7684 25.9891 38.8048 26.0129 40.6576C26.0176 41.101 26.1794 41.2372 26.59 41.2721C27.1702 41.3227 27.7426 41.4542 28.3212 41.508C28.9459 41.565 29.2566 41.9023 29.458 42.4756C29.737 43.2753 30.0636 44.0624 30.4346 44.8241C30.6994 45.3704 30.7152 45.8312 30.33 46.3174C29.8591 46.9112 29.4168 47.5288 29.0458 48.0245C29.6197 48.6389 30.1492 49.2043 30.6946 49.787C31.2812 49.3484 31.8837 48.9192 32.4623 48.4584C32.9443 48.0752 33.3993 48.0625 33.951 48.3412C34.6883 48.7118 35.4508 49.0554 36.2388 49.2946C36.9205 49.502 37.2471 49.8836 37.3216 50.5662C37.3977 51.2725 37.5166 51.9756 37.6181 52.6834C38.4457 52.6834 39.221 52.6834 40.0089 52.6834C40.1135 51.9312 40.2214 51.2234 40.3085 50.5123C40.3846 49.8916 40.6748 49.521 41.3058 49.3215C42.1127 49.0649 42.8991 48.726 43.6585 48.3476C44.2102 48.072 44.6653 48.0688 45.1488 48.4505C45.7433 48.9192 46.3601 49.3595 46.888 49.7522C47.5031 49.1805 48.0691 48.6548 48.6494 48.1179C48.1769 47.4893 47.7267 46.8748 47.2622 46.2731C46.9419 45.8582 46.8991 45.4496 47.1211 44.9618C47.5174 44.0877 47.8202 43.1692 48.2546 42.3157C48.4211 41.9894 48.8048 41.6664 49.1551 41.5619C49.7925 41.3718 50.4837 41.3718 51.1417 41.2356C51.3145 41.1992 51.5618 40.9664 51.5745 40.8081C51.6236 40.1667 51.5951 39.5174 51.5951 38.8175Z" fill="#EF4754" stroke="#FF435B" stroke-width="0.5"/>
<path d="M38.7738 46.5232C35.1956 46.509 32.2689 43.5825 32.2562 40.0068C32.2419 36.3914 35.24 33.4301 38.8817 33.4602C42.4536 33.4903 45.385 36.4516 45.3644 40.0131C45.3438 43.6237 42.3949 46.5375 38.7738 46.5232ZM38.8056 44.5042C41.3137 44.5057 43.3684 42.4502 43.343 39.9656C43.3176 37.4873 41.2946 35.4824 38.8182 35.4793C36.3165 35.4761 34.2554 37.5395 34.2792 40.021C34.303 42.4978 36.326 44.5026 38.8056 44.5042Z" fill="#EF4754" stroke="#FF435B" stroke-width="0.5"/>
</svg>
