<svg width="73" height="61" viewBox="0 0 73 61" fill="none" xmlns="http://www.w3.org/2000/svg">
<path d="M72.0103 42.2778C71.6492 41.0994 71.0105 40.1838 70.0749 39.5825C69.9513 39.5358 69.8197 39.4729 69.6801 39.3907C68.04 38.4299 65.7483 39.0634 65.7483 39.0634L52.1845 42.7227C52.0978 42.5906 52.0031 42.4664 51.9293 42.331C51.3083 41.1994 50.4048 40.3885 49.1594 40.05C48.0264 39.7421 46.895 39.4358 45.7637 39.1295L43.4062 38.4912C39.8082 37.5207 36.2086 36.5567 32.6042 35.6137C31.7665 35.3944 30.863 35.3703 29.9868 35.3557C28.3611 35.33 26.7339 35.3364 25.0809 35.3412L24.8819 35.359H20.9678C17.6057 35.2074 14.5117 35.9683 11.5925 37.7722C11.5925 35.762 11.5973 33.9033 11.5893 32.0462C11.5861 31.0597 11.1737 30.6164 10.2124 30.6115C7.59495 30.597 4.97751 30.5954 2.36008 30.6115C1.43731 30.618 1.00241 31.079 1.00241 32.0059C0.999198 40.9398 0.999198 49.8737 1.00241 58.8076C1.00241 59.7555 1.42287 60.1908 2.34563 60.194C4.98553 60.202 7.62545 60.202 10.267 60.194C11.1656 60.1908 11.5813 59.7748 11.5877 58.8657C11.6005 57.1682 11.5909 55.4691 11.5941 53.7716C11.5941 53.575 11.615 53.3799 11.631 53.1204C11.8461 53.2235 11.9921 53.2832 12.1269 53.3622C14.4138 54.6969 16.8723 55.4433 19.5235 55.4481C26.2861 55.4594 33.0488 55.461 39.8114 55.4288C40.7518 55.424 41.7163 55.2966 42.6247 55.0564C51.2762 52.7657 59.9197 50.446 68.5615 48.1134C70.4119 47.6137 71.5898 46.3982 72.0488 44.5073C72.0696 44.4218 72.1258 44.3445 72.1659 44.2622V42.7276C72.113 42.5777 72.0568 42.4294 72.0103 42.2778ZM9.19013 57.8017H3.40962V33.0215H9.19013V57.8017ZM67.8426 45.8485C60.3209 47.8861 52.7799 49.8592 45.2742 51.9613C42.3438 52.7818 39.4118 53.2203 36.3723 53.1107C34.0823 53.0269 31.7874 53.093 29.4941 53.093C26.2749 53.093 23.0556 53.0914 19.8364 53.0946C16.9847 53.0978 14.4298 52.2176 12.1253 50.5459C11.7578 50.28 11.5749 50.0091 11.5797 49.5223C11.607 46.777 11.6038 44.0317 11.5813 41.2864C11.5765 40.8334 11.7321 40.5707 12.082 40.3111C14.3335 38.6475 16.8531 37.7545 19.6438 37.7254C23.2338 37.6884 26.8253 37.6593 30.4121 37.7448C31.5948 37.7722 32.7872 38.093 33.9443 38.396C38.6881 39.6389 43.419 40.9253 48.1532 42.2021C49.3857 42.5341 50.1705 43.4707 50.1656 44.5572C50.1608 45.6002 49.4579 46.5723 48.4212 46.8109C47.9703 46.9156 47.4471 46.8963 46.9962 46.7802C43.7946 45.95 40.6026 45.0795 37.4074 44.2252C36.5023 43.9834 35.8893 44.2767 35.7047 45.0231C35.5314 45.7292 35.9214 46.2644 36.8024 46.5014C40.1308 47.3944 43.4463 48.3423 46.7939 49.1532C49.3632 49.7754 51.7704 48.194 52.3738 45.6099C52.4701 45.2004 52.6306 45.0441 53.0158 44.9425C57.5526 43.7351 62.0845 42.5067 66.6197 41.2913C68.1138 40.8899 69.3639 41.5556 69.733 42.9275C70.0813 44.2219 69.3174 45.4487 67.8426 45.8485Z" fill="black" stroke="black" stroke-width="0.5"/>
<path d="M71.5313 2.49454C71.5297 1.39326 71.1224 1.0012 70.0158 1.0012C52.9574 0.999602 35.9006 0.999602 18.8422 1.0012C17.7726 1.0012 17.3796 1.38848 17.378 2.45629C17.3732 6.16018 17.3732 9.86248 17.378 13.5664C17.3796 14.6549 17.7806 15.039 18.9032 15.0486C19.543 15.0549 20.1845 15.0501 20.834 15.0501V31.9105L23.2716 31.8961V15.1011H43.2519C43.2487 24.9761 43.2519 31.3144 43.2567 35.0072L45.6125 35.6383C45.6173 33.9951 45.6157 24.2764 45.6141 15.1011H65.5832V35.5729C65.5832 35.5729 66.7315 35.259 67.9839 35.4136V34.8797C67.9759 34.8032 67.9727 34.7171 67.9727 34.6231C67.9872 26.1809 67.9823 24.2748 67.9823 15.8327V15.0501C68.7281 15.0501 69.3744 15.0565 70.019 15.0486C71.1111 15.0358 71.5297 14.6278 71.5313 13.5361C71.5377 9.8561 71.5377 6.17612 71.5313 2.49454ZM43.2519 12.6739H19.7772V3.36473H43.2583C43.2551 4.54252 43.2535 8.12369 43.2519 12.6739ZM69.121 12.6739H45.6141V8.96838C45.6125 7.1005 45.6206 5.23262 45.6093 3.36473H69.121V12.6739Z" fill="#EF4754" stroke="#FF435B" stroke-width="0.5"/>
</svg>
