<svg width="95" height="95" viewBox="0 0 95 95" fill="none" xmlns="http://www.w3.org/2000/svg">
<path d="M8.58307e-06 45.7633C0.214584 44.7785 0.390766 43.7824 0.652774 42.8089C2.63139 35.4501 9.80951 29.5933 18.7178 30.1828C26.2822 30.6843 32.9905 36.7127 34.3525 44.4713C35.9968 53.8359 29.7334 62.821 20.3937 64.4946C11.0224 66.1751 2.05767 59.984 0.304927 50.6217C0.21232 50.1271 0.10165 49.637 8.58307e-06 49.1423C8.58307e-06 48.0175 8.58307e-06 46.8904 8.58307e-06 45.7633ZM17.3039 61.8655C25.2567 61.8678 31.7301 55.4237 31.7527 47.4844C31.773 39.5541 25.3177 33.0717 17.3648 33.0446C9.37359 33.0152 2.87759 39.4841 2.8821 47.4664C2.88662 55.4079 9.351 61.8633 17.3039 61.8655Z" fill="black"/>
<path d="M17.3535 38.8111C19.6055 38.8111 21.8574 38.8088 24.1093 38.8133C25.4803 38.8156 25.9727 39.2764 25.9772 40.6158C25.9863 45.1761 25.9863 49.7364 25.9772 54.2944C25.975 55.5999 25.4758 56.0946 24.1951 56.0968C19.6077 56.1014 15.0181 56.1014 10.4306 56.0968C9.15448 56.0946 8.65079 55.5864 8.64853 54.2944C8.64176 49.7341 8.64176 45.1738 8.64853 40.6158C8.65079 39.3215 9.15222 38.8178 10.4306 38.8156C12.7368 38.8065 15.0452 38.8111 17.3535 38.8111ZM11.5713 41.7293C11.5713 45.5917 11.5713 49.3546 11.5713 53.1673C15.4043 53.1673 19.1921 53.1673 23.0138 53.1673C23.0138 49.3479 23.0138 45.5442 23.0138 41.7293C19.1695 41.7293 15.4043 41.7293 11.5713 41.7293Z" fill="#EF4754"/>
<path d="M77.1633 64.7521C67.609 64.7318 59.8482 56.9641 59.8617 47.4324C59.873 37.8962 67.6655 30.1331 77.204 30.1557C86.774 30.176 94.5056 37.9188 94.4965 47.4731C94.4875 57.0183 86.7085 64.7724 77.1633 64.7521ZM77.1746 61.8655C85.1274 61.8745 91.6031 55.4259 91.6144 47.4821C91.6257 39.5293 85.1997 33.0784 77.2333 33.0423C69.2556 33.0084 62.737 39.4976 62.7438 47.4641C62.7528 55.3988 69.2217 61.8564 77.1746 61.8655Z" fill="black"/>
<path d="M77.1475 35.9289C83.5306 35.9131 88.7256 41.0742 88.7323 47.4392C88.7391 53.8042 83.5509 58.9857 77.1746 58.9789C70.7983 58.9744 65.6078 53.7771 65.6304 47.4234C65.653 41.09 70.8073 35.9425 77.1475 35.9289ZM77.1927 38.8133C72.4178 38.8088 68.5351 42.6756 68.5238 47.4438C68.5125 52.1983 72.4065 56.09 77.1746 56.0945C81.9404 56.0991 85.8367 52.2209 85.848 47.4618C85.857 42.7118 81.9608 38.8178 77.1927 38.8133Z" fill="#EF4754"/>
<path d="M49.1519 0C50.1367 0.214576 51.1305 0.393013 52.1018 0.652763C59.3702 2.59524 65.3264 9.7169 64.7301 18.7178C64.231 26.2844 58.1957 32.995 50.4394 34.3525C41.0726 35.9945 32.083 29.7267 30.4161 20.3892C28.7401 11.0089 34.9199 2.0667 44.2935 0.304924C44.7859 0.212317 45.276 0.101641 45.7684 0C46.8978 0 48.0248 0 49.1519 0ZM61.8706 17.2722C61.848 9.31033 55.3949 2.87306 47.4421 2.88209C39.496 2.88887 33.052 9.35325 33.052 17.3106C33.052 25.2951 39.5683 31.8001 47.5212 31.755C55.4672 31.7075 61.8932 25.2228 61.8706 17.2722Z" fill="black"/>
<path d="M47.4083 23.0884C44.7046 23.0884 42.0009 23.0838 39.2973 23.0929C38.5926 23.0951 37.9263 23.0206 37.5468 22.3249C37.1899 21.6676 37.4474 21.0939 37.7998 20.5089C40.5441 15.9531 43.2726 11.3883 46.0101 6.83027C46.8255 5.4728 48.0859 5.46376 48.9012 6.81672C51.7043 11.4696 54.5006 16.1248 57.2923 20.7822C58.0128 21.9861 57.3487 23.0725 55.858 23.0838C53.0414 23.1042 50.2248 23.0884 47.4083 23.0884ZM41.3979 20.1249C45.5019 20.1249 49.4433 20.1249 53.5225 20.1249C51.4829 16.7256 49.5111 13.4392 47.4602 10.0218C45.4138 13.4324 43.442 16.7188 41.3979 20.1249Z" fill="#EF4754"/>
<path d="M64.7572 77.2514C64.7121 86.8531 56.9151 94.5598 47.3088 94.4966C37.8155 94.4356 30.1157 86.6318 30.1653 77.1182C30.2128 67.5549 37.9985 59.8188 47.5279 59.8617C57.0709 59.9047 64.8024 67.7085 64.7572 77.2514ZM33.052 77.2017C33.061 85.1591 39.5141 91.6145 47.4579 91.6167C55.404 91.619 61.8571 85.1682 61.8706 77.2085C61.8842 69.224 55.3837 62.7167 47.4218 62.7461C39.4802 62.7732 33.0429 69.2489 33.052 77.2017Z" fill="black"/>
<path d="M47.4602 75.1508C49.3462 73.2625 51.1531 71.4533 52.9624 69.6418C53.1611 69.443 53.3531 69.2352 53.5609 69.0455C54.2566 68.404 55.081 68.3702 55.6728 68.9484C56.26 69.5221 56.2487 70.3781 55.6163 71.0557C55.1555 71.5504 54.6654 72.0157 54.1888 72.4945C52.6394 74.044 51.0876 75.5935 49.4907 77.1858C51.3858 79.0764 53.2402 80.924 55.0923 82.7716C55.3114 82.9907 55.5418 83.2007 55.736 83.4402C56.2533 84.0794 56.2194 84.8857 55.6683 85.4233C55.1081 85.9699 54.3108 86.0038 53.6919 85.4301C52.8675 84.6621 52.0905 83.8467 51.2932 83.0494C50.0419 81.7958 48.7905 80.54 47.4873 79.2345C47.2343 79.4716 47.0084 79.6727 46.7961 79.8827C45.023 81.6535 43.2545 83.4289 41.4769 85.1952C40.6886 85.9789 39.8958 86.0512 39.2543 85.4233C38.6061 84.7931 38.6784 83.9258 39.4689 83.1352C41.4362 81.1634 43.4103 79.1983 45.4319 77.1813C43.6001 75.3518 41.8134 73.5652 40.0245 71.7763C39.7648 71.5165 39.496 71.2681 39.2521 70.997C38.6739 70.3465 38.6739 69.5131 39.2408 68.9529C39.81 68.3882 40.6389 68.3769 41.2872 68.9823C42.0483 69.6938 42.7711 70.4459 43.5075 71.1822C44.7994 72.4787 46.0891 73.773 47.4602 75.1508Z" fill="#EF4754"/>
</svg>
