<svg width="70" height="78" viewBox="0 0 70 78" fill="none" xmlns="http://www.w3.org/2000/svg">
<path d="M33.286 78.0002C33.1533 77.9457 33.0266 77.875 32.8899 77.8366C30.8934 77.2891 29.5684 76.0204 28.9511 74.0467C28.8023 73.57 28.5993 73.3801 28.1006 73.2932C13.8394 70.7801 2.63433 59.3903 0.474937 45.0126C-1.28836 33.2794 1.83809 23.025 10.1922 14.5079C12.0479 12.617 14.1732 11.0533 16.4391 9.68365C16.6522 9.55638 16.8614 9.42507 17.2052 9.21295C16.604 9.01497 16.1174 8.86346 15.6349 8.69578C14.6537 8.35639 14.2094 7.59882 14.4727 6.72812C14.7301 5.87965 15.5545 5.50591 16.5497 5.815C18.1984 6.33015 19.8471 6.85338 21.4878 7.39276C22.5534 7.74226 22.9274 8.47962 22.5896 9.57052C22.0548 11.2998 21.5059 13.025 20.9429 14.7462C20.6313 15.7018 19.8732 16.1402 19.0489 15.8856C18.1703 15.6149 17.7943 14.8291 18.0818 13.8331C18.2547 13.2331 18.4497 12.6392 18.7091 11.8008C17.561 12.5624 16.5638 13.1584 15.6349 13.8493C8.63596 19.0674 4.49412 26.0431 3.32395 34.6935C2.03515 44.2268 4.39156 52.8085 10.6928 60.1276C15.3594 65.5478 21.337 68.8104 28.3057 70.271C28.7822 70.37 29.0416 70.2973 29.2909 69.8003C30.5013 67.3882 33.0809 66.2165 35.6646 66.8347C38.1376 67.4266 39.9371 69.7154 39.9511 72.2851C39.9652 75.0507 38.2944 77.1719 35.5701 77.8527C35.4555 77.881 35.3489 77.9477 35.2383 77.9982C34.5909 78.0002 33.9394 78.0002 33.286 78.0002ZM36.9433 72.378C36.9433 70.8427 35.7932 69.6892 34.2873 69.7134C32.8195 69.7377 31.6876 70.8871 31.6775 72.3679C31.6654 73.7962 32.8658 74.9881 34.3154 74.9922C35.7772 74.9942 36.9433 73.8366 36.9433 72.378Z" fill="black"/>
<path d="M39.8173 7.57925C38.8964 9.70894 37.4802 11.0508 35.3069 11.4057C32.8799 11.8038 30.9031 10.9482 29.5504 8.91493C28.1711 6.84473 28.2345 4.65554 29.5258 2.55457C30.6841 0.671088 33.1132 -0.315793 35.3172 0.090449C37.5498 0.502846 39.058 1.78518 39.7497 3.94359C39.9257 4.4914 40.2184 4.64528 40.6952 4.73351C48.3426 6.17587 54.8196 9.77049 60.1034 15.4825C64.2269 19.9409 66.9732 25.1625 68.4016 31.0756C68.6778 32.2225 68.2829 33.0145 67.3231 33.2464C66.4288 33.4618 65.7269 32.916 65.4322 31.8142C62.4711 20.6857 55.6422 13.0471 44.8637 9.02367C43.2532 8.41841 41.5444 8.06551 39.8173 7.57925ZM34.3206 3.06545C32.8451 3.0675 31.6255 4.28008 31.6357 5.72859C31.648 7.26329 32.8513 8.45123 34.3677 8.42251C35.88 8.39379 36.9932 7.24687 36.9952 5.71834C36.9952 4.23699 35.8124 3.0634 34.3206 3.06545Z" fill="black"/>
<path d="M50.6851 66.1699C52.962 64.8541 54.8977 63.38 56.6599 61.6843C61.1592 57.3531 64.0759 52.1592 65.4626 46.1343C65.6867 45.1647 66.2156 44.6978 67.0149 44.7077C68.0383 44.7215 68.6801 45.5961 68.4359 46.6863C67.7173 49.9075 66.5648 52.9704 64.9378 55.8573C61.9908 61.0828 57.9275 65.2736 52.75 68.4216C52.6007 68.5126 52.4513 68.6036 52.308 68.7025C52.2716 68.7283 52.2575 68.7837 52.201 68.8747C52.752 69.0508 53.295 69.2071 53.8259 69.395C54.7363 69.7156 55.15 70.4952 54.8715 71.3222C54.6151 72.088 53.7976 72.4758 52.9095 72.2087C51.2038 71.6942 49.5043 71.1699 47.8087 70.6218C46.7712 70.2874 46.3998 69.5672 46.7228 68.5423C47.2637 66.8248 47.8208 65.1113 48.3941 63.4038C48.7009 62.4876 49.4982 62.0563 50.3137 62.3116C51.1453 62.5727 51.5309 63.3543 51.2685 64.2763C51.1029 64.864 50.9112 65.4398 50.6851 66.1699Z" fill="black"/>
<path d="M69.4383 38.5565C69.41 39.3383 68.5417 39.9664 67.5141 39.951C66.4351 39.9338 65.5874 39.2518 65.6362 38.4431C65.685 37.6671 66.5636 37.0716 67.6194 37.0985C68.6702 37.1254 69.4666 37.7632 69.4383 38.5565Z" fill="black"/>
<path d="M50.8768 39.5337C50.8768 42.2176 50.8556 44.9038 50.8887 47.5877C50.8981 48.4722 50.5885 49.0548 49.7967 49.5018C45.0172 52.2067 40.252 54.9374 35.4938 57.6798C34.7824 58.0893 34.163 58.1173 33.4374 57.6985C28.6296 54.9257 23.8076 52.174 18.9809 49.4339C18.286 49.0385 18 48.505 18.0024 47.7234C18.0166 42.2387 18.0189 36.7516 18 31.2668C17.9976 30.4385 18.3356 29.9167 19.0519 29.5119C23.8289 26.8023 28.5989 24.081 33.3547 21.3316C34.1418 20.8753 34.7918 20.8987 35.5671 21.3479C40.2969 24.081 45.0385 26.7929 49.7919 29.4815C50.5814 29.9284 50.8958 30.5087 50.8863 31.3932C50.8556 34.1075 50.8768 36.8218 50.8768 39.5337ZM20.6639 33.1364C20.6639 37.732 20.6757 42.1357 20.6497 46.5394C20.6474 47.1408 20.8317 47.466 21.3659 47.7656C25.0013 49.8083 28.6131 51.8932 32.2319 53.9616C32.4777 54.102 32.7354 54.2214 33.0403 54.3758C33.071 54.1512 33.1088 54.0108 33.1088 53.8704C33.1112 49.5228 33.1277 45.1776 33.0828 40.8301C33.0805 40.5001 32.7283 40.0532 32.4139 39.8683C29.7311 38.2936 27.0176 36.7656 24.3135 35.2213C23.1505 34.5591 21.9852 33.8899 20.6639 33.1364ZM35.846 54.4039C36.1935 54.219 36.4251 54.0997 36.652 53.971C40.2709 51.9025 43.8826 49.8177 47.5157 47.7749C48.0522 47.4731 48.239 47.1502 48.2342 46.5488C48.2082 42.3767 48.22 38.207 48.22 34.0349C48.22 33.7893 48.1964 33.5412 48.1846 33.2909C48.0475 33.3049 47.9813 33.2955 47.9364 33.3213C44.0056 35.5559 40.0747 37.7882 36.1604 40.0509C35.9476 40.1725 35.7869 40.5656 35.7869 40.8347C35.7633 45.18 35.7704 49.5275 35.7751 53.8727C35.7751 54.0155 35.8129 54.1559 35.846 54.4039ZM29.5609 26.5566C33.6596 28.8965 37.581 31.1428 41.5142 33.3704C41.7175 33.4851 42.0602 33.595 42.2281 33.5038C43.7645 32.6661 45.2772 31.7839 46.8846 30.8644C42.7835 28.5174 38.8101 26.243 34.8296 23.9827C34.6571 23.8844 34.3451 23.8353 34.1891 23.9242C32.6787 24.7572 31.1895 25.623 29.5609 26.5566ZM39.3396 35.1768C35.1913 32.8088 31.1895 30.5204 27.1806 28.2483C27.0388 28.1688 26.7694 28.1664 26.6276 28.246C25.1219 29.0837 23.628 29.9448 22.1081 30.8129C22.2121 30.9229 22.2594 31.0048 22.3303 31.0445C26.2304 33.2768 30.1306 35.5138 34.0449 37.725C34.2481 37.8396 34.6287 37.8467 34.832 37.7367C36.2999 36.9341 37.7441 36.0894 39.3396 35.1768Z" fill="#EF4754"/>
</svg>
